<svg width="12" height="12" viewBox="0 0 12 12" fill="none" xmlns="http://www.w3.org/2000/svg">
<path d="M8.60385 1.9682C8.65715 1.94932 8.69908 1.90739 8.71796 1.85409L9.19815 0.498901C9.22765 0.415653 9.30126 0.374027 9.37488 0.374023C9.4485 0.37402 9.52212 0.415646 9.55162 0.498901L10.0318 1.85409C10.0507 1.90739 10.0926 1.94932 10.1459 1.9682L11.5011 2.44839C11.5844 2.47789 11.626 2.55151 11.626 2.62512C11.626 2.69874 11.5844 2.77236 11.5011 2.80186L10.1459 3.28205C10.0926 3.30093 10.0507 3.34286 10.0318 3.39616L9.55162 4.75135C9.52212 4.8346 9.4485 4.87623 9.37488 4.87622C9.30126 4.87622 9.22765 4.8346 9.19815 4.75135L8.71796 3.39616C8.69908 3.34286 8.65715 3.30093 8.60385 3.28205L7.24866 2.80186C7.16541 2.77236 7.12379 2.69874 7.12379 2.62512C7.12379 2.55151 7.16541 2.47789 7.24866 2.44839L8.60385 1.9682Z" fill="url(#paint0_linear_98_7012)"/>
<path fill-rule="evenodd" clip-rule="evenodd" d="M5.24988 4.11852L4.83007 5.30331C4.66011 5.78299 4.28275 6.16034 3.80307 6.33031L2.61828 6.75012L3.80307 7.16994C4.28275 7.3399 4.66011 7.71726 4.83007 8.19693L5.24988 9.38173L5.6697 8.19693C5.83966 7.71726 6.21702 7.3399 6.69669 7.16994L7.88149 6.75012L6.69669 6.33031C6.21702 6.16034 5.83966 5.78299 5.6697 5.30331L5.24988 4.11852ZM5.78008 2.24645C5.69159 1.99669 5.47073 1.87182 5.24988 1.87182C5.02903 1.87182 4.80818 1.9967 4.71968 2.24645L3.76967 4.92758C3.71302 5.08747 3.58723 5.21325 3.42734 5.26991L0.746214 6.21992C0.496459 6.30842 0.371582 6.52927 0.371582 6.75012C0.371582 6.97097 0.49646 7.19183 0.746215 7.28032L3.42734 8.23034C3.58723 8.28699 3.71302 8.41278 3.76967 8.57267L4.71968 11.2538C4.80818 11.5035 5.02903 11.6284 5.24988 11.6284C5.47073 11.6284 5.69159 11.5035 5.78008 11.2538L6.7301 8.57267C6.78675 8.41278 6.91254 8.28699 7.07243 8.23034L9.75356 7.28032C10.0033 7.19183 10.1282 6.97097 10.1282 6.75012C10.1282 6.52927 10.0033 6.30842 9.75355 6.21992L7.07243 5.26991C6.91254 5.21325 6.78675 5.08747 6.7301 4.92758L5.78008 2.24645Z" fill="url(#paint1_linear_98_7012)"/>
<defs>
<linearGradient id="paint0_linear_98_7012" x1="-0.753858" y1="12.7539" x2="12.7514" y2="-0.751415" gradientUnits="userSpaceOnUse">
<stop stop-color="#55DDFF"/>
<stop offset="0.5" stop-color="#675DFF"/>
<stop offset="0.98" stop-color="#28239B"/>
</linearGradient>
<linearGradient id="paint1_linear_98_7012" x1="-0.753858" y1="12.7539" x2="12.7514" y2="-0.751415" gradientUnits="userSpaceOnUse">
<stop stop-color="#55DDFF"/>
<stop offset="0.5" stop-color="#675DFF"/>
<stop offset="0.98" stop-color="#28239B"/>
</linearGradient>
</defs>
</svg>
