<svg width="12" height="12" viewBox="0 0 12 12" fill="none" xmlns="http://www.w3.org/2000/svg">
<path fill-rule="evenodd" clip-rule="evenodd" d="M5.1648 3.69211C4.99026 3.8797 4.875 4.16498 4.875 4.53409C4.875 4.84475 4.62316 5.09659 4.3125 5.09659C4.00184 5.09659 3.75 4.84475 3.75 4.53409C3.75 3.93161 3.9408 3.35609 4.34117 2.92579C4.74686 2.48976 5.32435 2.25 6 2.25C6.67565 2.25 7.25314 2.48976 7.65883 2.92579C8.0592 3.35609 8.25 3.93161 8.25 4.53409C8.25 5.45943 7.59835 5.97516 7.17329 6.28243C7.10261 6.33353 7.03931 6.37815 6.98203 6.41854C6.83965 6.51892 6.73437 6.59314 6.64496 6.67557C6.59268 6.72378 6.57079 6.75325 6.5625 6.76675V7.125C6.5625 7.43566 6.31066 7.6875 6 7.6875C5.68934 7.6875 5.4375 7.43566 5.4375 7.125V6.75C5.4375 6.32775 5.6819 6.03331 5.88238 5.84847C6.03104 5.71141 6.22469 5.57516 6.38599 5.46168C6.43195 5.42934 6.47529 5.39884 6.51421 5.37071C6.9329 5.06804 7.125 4.85082 7.125 4.53409C7.125 4.16498 7.00974 3.8797 6.8352 3.69211C6.66598 3.51024 6.39971 3.375 6 3.375C5.60029 3.375 5.33402 3.51024 5.1648 3.69211Z" fill="#474E5A"/>
<path d="M6.75 9C6.75 9.41355 6.41355 9.75 6 9.75C5.58645 9.75 5.25 9.41355 5.25 9C5.25 8.58645 5.58645 8.25 6 8.25C6.41355 8.25 6.75 8.58645 6.75 9Z" fill="#474E5A"/>
<path fill-rule="evenodd" clip-rule="evenodd" d="M6 10.875C8.69239 10.875 10.875 8.69239 10.875 6C10.875 3.30761 8.69239 1.125 6 1.125C3.30761 1.125 1.125 3.30761 1.125 6C1.125 6.76664 1.25924 7.20564 1.57697 7.79885C1.81418 8.24173 1.88286 8.78399 1.71047 9.30114L1.21628 10.7837L2.69886 10.2895C3.21601 10.1171 3.75827 10.1858 4.20115 10.423C4.79436 10.7408 5.23336 10.875 6 10.875ZM6 12C9.31371 12 12 9.31371 12 6C12 2.68629 9.31371 0 6 0C2.68629 0 0 2.68629 0 6C0 6.96773 0.187788 7.58791 0.585257 8.33001C0.686655 8.51932 0.711118 8.74165 0.643205 8.94539L0.0384875 10.7595C0.0129959 10.836 0 10.9161 0 10.9967V11.25C0 11.6642 0.335786 12 0.75 12H1.00329C1.0839 12 1.16399 11.987 1.24046 11.9615L3.05461 11.3568C3.25835 11.2889 3.48068 11.3133 3.66999 11.4147C4.41209 11.8122 5.03227 12 6 12Z" fill="#474E5A"/>
</svg>
