<svg width="12" height="12" viewBox="0 0 12 12" fill="none" xmlns="http://www.w3.org/2000/svg">
<path fill-rule="evenodd" clip-rule="evenodd" d="M11.1179 0C11.0168 0 10.9164 0.0173837 10.8212 0.0513915L0.547901 3.72042C0.21933 3.83776 0 4.14899 0 4.49789C0 4.85324 0.227386 5.16872 0.564501 5.28109L5.1803 6.8197L6.71891 11.4355C6.83128 11.7726 7.14676 12 7.50211 12C7.85101 12 8.16224 11.7807 8.27958 11.4521L11.9486 1.17883C11.9826 1.08361 12 0.983247 12 0.882135C12 0.394945 11.6051 0 11.1179 0ZM9.75 1.5L1.74317 4.48813L5.47307 5.73143L9.75 1.5ZM6.26857 6.52693L7.51187 10.2568L10.5 2.25L6.26857 6.52693Z" fill="#474E5A"/>
</svg>
