<svg width="12" height="12" viewBox="0 0 12 12" fill="none" xmlns="http://www.w3.org/2000/svg">
<path d="M10.4999 1.40625C10.4999 1.04381 10.2061 0.75 9.84369 0.75C9.48125 0.75 9.18744 1.04381 9.18744 1.40625V7.96875C9.18744 8.33119 9.48125 8.625 9.84369 8.625C10.2061 8.625 10.4999 8.33119 10.4999 7.96875V1.40625Z" fill="#474E5A"/>
<path d="M1.95049 1.40625C1.95049 1.07488 1.68186 0.806248 1.35049 0.806248C1.01912 0.806248 0.750488 1.07488 0.750488 1.40625V9.9C0.750488 10.6456 1.3549 11.25 2.10049 11.25H10.9698C11.3012 11.25 11.5698 10.9814 11.5698 10.65C11.5698 10.3186 11.3012 10.05 10.9698 10.05H2.10049C2.01764 10.05 1.95049 9.98284 1.95049 9.9V1.40625Z" fill="#474E5A"/>
<path d="M6.84369 2.625C7.20613 2.625 7.49994 2.91881 7.49994 3.28125V7.96875C7.49994 8.33119 7.20613 8.625 6.84369 8.625C6.48125 8.625 6.18744 8.33119 6.18744 7.96875V3.28125C6.18744 2.91881 6.48125 2.625 6.84369 2.625Z" fill="#474E5A"/>
<path d="M4.49994 5.15625C4.49994 4.79381 4.20613 4.5 3.84369 4.5C3.48125 4.5 3.18744 4.79381 3.18744 5.15625V7.96875C3.18744 8.33119 3.48125 8.625 3.84369 8.625C4.20613 8.625 4.49994 8.33119 4.49994 7.96875V5.15625Z" fill="#474E5A"/>
</svg>
