<svg width="36" height="36" viewBox="0 0 36 36" fill="none" xmlns="http://www.w3.org/2000/svg">
<rect x="8.5" y="8.5" width="19" height="19" rx="9.5" fill="#675DFF"/>
<rect x="8.5" y="8.5" width="19" height="19" rx="9.5" stroke="#675DFF"/>
<path d="M18.8499 12.9999C18.8499 12.5305 18.4693 12.1499 17.9999 12.1499C17.5305 12.1499 17.1499 12.5305 17.1499 12.9999V17.1499H12.9999C12.5305 17.1499 12.1499 17.5305 12.1499 17.9999C12.1499 18.4693 12.5305 18.8499 12.9999 18.8499H17.1499V22.9999C17.1499 23.4693 17.5305 23.8499 17.9999 23.8499C18.4693 23.8499 18.8499 23.4693 18.8499 22.9999V18.8499H22.9999C23.4693 18.8499 23.8499 18.4693 23.8499 17.9999C23.8499 17.5305 23.4693 17.1499 22.9999 17.1499H18.8499V12.9999Z" fill="white"/>
</svg>
