<svg width="24" height="24" viewBox="0 0 24 24" fill="none" xmlns="http://www.w3.org/2000/svg">
<path fill-rule="evenodd" clip-rule="evenodd" d="M17 6.50037H7C6.17157 6.50037 5.5 7.17194 5.5 8.00037V16.0004C5.5 16.8288 6.17157 17.5004 7 17.5004H17C17.8284 17.5004 18.5 16.8288 18.5 16.0004V8.00037C18.5 7.17194 17.8284 6.50037 17 6.50037ZM7 5.00037C5.34315 5.00037 4 6.34351 4 8.00037V16.0004C4 17.6572 5.34315 19.0004 7 19.0004H17C18.6569 19.0004 20 17.6572 20 16.0004V8.00037C20 6.34351 18.6569 5.00037 17 5.00037H7Z" fill="#6C7688"/>
<path fill-rule="evenodd" clip-rule="evenodd" d="M7.43056 8.51227C7.70012 8.19778 8.1736 8.16136 8.48809 8.43092L11.9881 11.4309C12.1543 11.5734 12.25 11.7814 12.25 12.0004C12.25 12.2193 12.1543 12.4273 11.9881 12.5698L8.48809 15.5698C8.1736 15.8394 7.70012 15.803 7.43056 15.4885C7.16099 15.174 7.19741 14.7005 7.51191 14.4309L10.3476 12.0004L7.51191 9.56981C7.19741 9.30024 7.16099 8.82677 7.43056 8.51227Z" fill="#6C7688"/>
<path fill-rule="evenodd" clip-rule="evenodd" d="M12 14.7504C12 14.3362 12.3358 14.0004 12.75 14.0004H16.25C16.6642 14.0004 17 14.3362 17 14.7504C17 15.1646 16.6642 15.5004 16.25 15.5004H12.75C12.3358 15.5004 12 15.1646 12 14.7504Z" fill="#6C7688"/>
</svg>
