<svg width="32" height="32" viewBox="0 0 32 32" fill="none" xmlns="http://www.w3.org/2000/svg">
<path fill-rule="evenodd" clip-rule="evenodd" d="M14.8864 12.9228C14.6537 13.1729 14.5 13.5533 14.5 14.0455C14.5 14.4597 14.1642 14.7955 13.75 14.7955C13.3358 14.7955 13 14.4597 13 14.0455C13 13.2421 13.2544 12.4748 13.7882 11.901C14.3292 11.3197 15.0991 11 16 11C16.9009 11 17.6708 11.3197 18.2118 11.901C18.7456 12.4748 19 13.2421 19 14.0455C19 15.2792 18.1311 15.9669 17.5644 16.3766C17.4701 16.4447 17.3858 16.5042 17.3094 16.558C17.1195 16.6919 16.9792 16.7909 16.8599 16.9008C16.7902 16.965 16.761 17.0043 16.75 17.0223V17.5C16.75 17.9142 16.4142 18.25 16 18.25C15.5858 18.25 15.25 17.9142 15.25 17.5V17C15.25 16.437 15.5759 16.0444 15.8432 15.798C16.0414 15.6152 16.2996 15.4336 16.5146 15.2822C16.5759 15.2391 16.6337 15.1985 16.6856 15.1609C17.2439 14.7574 17.5 14.4678 17.5 14.0455C17.5 13.5533 17.3463 13.1729 17.1136 12.9228C16.888 12.6803 16.533 12.5 16 12.5C15.467 12.5 15.112 12.6803 14.8864 12.9228Z" fill="#474E5A"/>
<path d="M17 20C17 20.5514 16.5514 21 16 21C15.4486 21 15 20.5514 15 20C15 19.4486 15.4486 19 16 19C16.5514 19 17 19.4486 17 20Z" fill="#474E5A"/>
<path fill-rule="evenodd" clip-rule="evenodd" d="M16 22.5C19.5899 22.5 22.5 19.5899 22.5 16C22.5 12.4101 19.5899 9.5 16 9.5C12.4101 9.5 9.5 12.4101 9.5 16C9.5 17.0222 9.67899 17.6075 10.1026 18.3985C10.4189 18.989 10.5105 19.712 10.2806 20.4015L9.62171 22.3783L11.5985 21.7194C12.288 21.4895 13.011 21.5811 13.6015 21.8974C14.3925 22.321 14.9778 22.5 16 22.5ZM16 24C20.4183 24 24 20.4183 24 16C24 11.5817 20.4183 8 16 8C11.5817 8 8 11.5817 8 16C8 17.2903 8.25038 18.1172 8.78034 19.1067C8.91554 19.3591 8.94816 19.6555 8.85761 19.9272L8.05132 22.3461C8.01733 22.448 8 22.5548 8 22.6623V23C8 23.5523 8.44772 24 9 24H9.33772C9.4452 24 9.55198 23.9827 9.65395 23.9487L12.0728 23.1424C12.3445 23.0518 12.6409 23.0845 12.8933 23.2197C13.8828 23.7496 14.7097 24 16 24Z" fill="#474E5A"/>
</svg>
