<svg width="32" height="32" viewBox="0 0 32 32" fill="none" xmlns="http://www.w3.org/2000/svg">
<path fill-rule="evenodd" clip-rule="evenodd" d="M13.0051 21H10.7903C9.75877 21 9.00092 20.153 9 19.2109C8.99976 18.9652 9.05102 18.713 9.16235 18.4677L9.63929 17.4167C10.2144 16.1493 10.5564 14.7884 10.6489 13.3993L10.6762 12.9889C10.8631 10.1815 13.191 8 16 8C18.809 8 21.1369 10.1815 21.3238 12.9889L21.3511 13.3993C21.4436 14.7883 21.7856 16.1493 22.3607 17.4167L22.8376 18.4677C22.949 18.713 23.0002 18.9652 23 19.2109C22.9991 20.153 22.2412 21 21.2097 21H18.9952C18.9952 22.6569 17.6543 24 16.0002 24C14.346 24 13.0051 22.6569 13.0051 21ZM10.5256 19.0884L11.0026 18.0374C11.6523 16.6057 12.0387 15.0682 12.1431 13.4991L12.1704 13.0887C12.3048 11.0692 13.9794 9.5 16 9.5C18.0206 9.5 19.6952 11.0692 19.8296 13.0887L19.8569 13.4991C19.9613 15.0682 20.3477 16.6057 20.9974 18.0374L21.4744 19.0884C21.5618 19.2811 21.4211 19.5 21.2097 19.5H10.7903C10.5789 19.5 10.4382 19.2811 10.5256 19.0884ZM14.5026 21C14.5026 21.8284 15.1731 22.5 16.0002 22.5C16.8272 22.5 17.4977 21.8284 17.4977 21H14.5026Z" fill="#474E5A"/>
</svg>
