<svg width="32" height="32" viewBox="0 0 32 32" fill="none" xmlns="http://www.w3.org/2000/svg">
<path fill-rule="evenodd" clip-rule="evenodd" d="M16 18C17.1045 18 18 17.1046 18 16C18 14.8954 17.1045 14 16 14C14.8954 14 14 14.8954 14 16C14 17.1046 14.8954 18 16 18ZM16 19.5C17.933 19.5 19.5 17.933 19.5 16C19.5 14.067 17.933 12.5 16 12.5C14.067 12.5 12.5 14.067 12.5 16C12.5 17.933 14.067 19.5 16 19.5Z" fill="#474E5A"/>
<path fill-rule="evenodd" clip-rule="evenodd" d="M15.4092 22.5H16.5908L16.6428 21.6676C16.686 20.9765 17.1264 20.4062 17.7222 20.1591C18.3207 19.9109 19.0352 20.0054 19.5529 20.4622L20.1784 21.014L21.0139 20.1785L20.4622 19.5531C20.0053 19.0354 19.9109 18.3208 20.1591 17.7222C20.4062 17.1265 20.9765 16.686 21.6676 16.6428L22.5 16.5908V15.4092L21.6676 15.3572C20.9765 15.314 20.4062 14.8736 20.1591 14.2778C19.9109 13.6793 20.0053 12.9647 20.4622 12.4469L21.0139 11.8216L20.1784 10.9861L19.553 11.5378C19.0353 11.9947 18.3207 12.0891 17.7222 11.8409C17.1264 11.5938 16.686 11.0235 16.6428 10.3324L16.5908 9.5H15.4092L15.3572 10.3324C15.314 11.0235 14.8735 11.5938 14.2778 11.8409C13.6792 12.0891 12.9646 11.9947 12.4469 11.5379L11.8215 10.9861L10.986 11.8216L11.5378 12.4471C11.9946 12.9648 12.0891 13.6793 11.8409 14.2778C11.5938 14.8736 11.0235 15.314 10.3324 15.3571L9.5 15.4092V16.5908L10.3324 16.6428C11.0235 16.686 11.5938 17.1264 11.8409 17.7222C12.0891 18.3207 11.9947 19.0353 11.5378 19.553L10.986 20.1785L11.8215 21.014L12.447 20.4622C12.9647 20.0053 13.6793 19.9109 14.2778 20.1591C14.8736 20.4062 15.314 20.9765 15.3572 21.6676L15.4092 22.5ZM12.5139 22.3779C12.5775 22.3386 12.6387 22.2934 12.6965 22.2424L13.4394 21.5869C13.5117 21.5231 13.6142 21.5078 13.7032 21.5447C13.7922 21.5816 13.8541 21.665 13.8601 21.7612L13.9219 22.7498C13.9267 22.8269 13.938 22.902 13.9552 22.9748C13.9653 23.0175 13.9774 23.0593 13.9914 23.1002C14.1721 23.6264 14.6709 24 15.2526 24H16.7474C17.329 24 17.8279 23.6264 18.0085 23.1003C18.0226 23.0594 18.0347 23.0175 18.0448 22.9749C18.062 22.9021 18.0733 22.8269 18.0781 22.7498L18.1399 21.7611C18.1459 21.665 18.2078 21.5816 18.2967 21.5447C18.3858 21.5078 18.4882 21.5232 18.5605 21.5869L19.3033 22.2424C19.3612 22.2935 19.4224 22.3387 19.4861 22.378C19.5234 22.401 19.5615 22.422 19.6004 22.441C20.1001 22.6852 20.717 22.5967 21.1283 22.1854L22.1853 21.1284C22.5966 20.7171 22.6851 20.1002 22.4408 19.6004C22.4218 19.5616 22.4009 19.5234 22.3779 19.4862C22.3385 19.4225 22.2934 19.3614 22.2423 19.3035L21.5869 18.5607C21.5231 18.4884 21.5077 18.3859 21.5447 18.2968C21.5816 18.2078 21.665 18.1459 21.7612 18.1399L22.7498 18.0781C22.8269 18.0733 22.902 18.062 22.9748 18.0448C23.0174 18.0347 23.0593 18.0226 23.1002 18.0086C23.6263 17.828 24 17.3291 24 16.7474V15.2526C24 14.6709 23.6264 14.1721 23.1002 13.9914C23.0593 13.9774 23.0175 13.9653 22.9748 13.9552C22.902 13.938 22.8269 13.9267 22.7498 13.9219L21.7612 13.8601C21.665 13.8541 21.5816 13.7922 21.5447 13.7032C21.5078 13.6142 21.5231 13.5117 21.5869 13.4394L22.2423 12.6967C22.2934 12.6387 22.3386 12.5775 22.3779 12.5138C22.4009 12.4766 22.4219 12.4385 22.4409 12.3996C22.6851 11.8999 22.5966 11.283 22.1853 10.8717L21.1283 9.8147C20.717 9.40342 20.1001 9.31487 19.6004 9.55913C19.5615 9.57811 19.5234 9.5991 19.4861 9.6221C19.4224 9.66142 19.3613 9.70662 19.3033 9.75773L18.5606 10.4131C18.4883 10.4769 18.3858 10.4922 18.2968 10.4553C18.2078 10.4184 18.1459 10.335 18.1399 10.2388L18.0781 9.25016C18.0733 9.17312 18.062 9.09795 18.0448 9.02516C18.0347 8.9825 18.0226 8.94067 18.0085 8.89975C17.8279 8.37362 17.3291 8 16.7474 8H15.2526C14.6709 8 14.172 8.37366 13.9914 8.89983C13.9774 8.94074 13.9653 8.98256 13.9552 9.0252C13.938 9.09798 13.9267 9.17314 13.9219 9.25016L13.8601 10.2388C13.8541 10.335 13.7922 10.4184 13.7032 10.4553C13.6141 10.4923 13.5116 10.4769 13.4393 10.4131L12.6966 9.75774C12.6387 9.70665 12.5775 9.66146 12.5138 9.62215C12.4766 9.59915 12.4384 9.57817 12.3996 9.55919C11.8998 9.31487 11.2829 9.40341 10.8716 9.81472L9.81461 10.8717C9.40332 11.283 9.31477 11.8999 9.55903 12.3996C9.57802 12.4385 9.59902 12.4766 9.62203 12.5139C9.66134 12.5776 9.70653 12.6388 9.75763 12.6967L10.4131 13.4395C10.4768 13.5118 10.4922 13.6142 10.4553 13.7033C10.4184 13.7922 10.335 13.8541 10.2389 13.8601L9.25016 13.9219C9.17311 13.9267 9.09792 13.938 9.02512 13.9552C8.98245 13.9653 8.9406 13.9774 8.89967 13.9915C8.37359 14.1721 8 14.671 8 15.2526V16.7474C8 17.3291 8.37362 17.8279 8.89974 18.0085C8.94066 18.0226 8.9825 18.0347 9.02516 18.0448C9.09795 18.062 9.17312 18.0733 9.25016 18.0781L10.2388 18.1399C10.335 18.1459 10.4184 18.2078 10.4553 18.2968C10.4922 18.3858 10.4769 18.4883 10.4131 18.5606L9.75762 19.3034C9.70654 19.3613 9.66137 19.4225 9.62207 19.4861C9.59906 19.5234 9.57806 19.5615 9.55907 19.6004C9.31475 20.1001 9.40328 20.7171 9.81459 21.1284L10.8716 22.1854C11.2829 22.5967 11.8998 22.6852 12.3996 22.4409C12.4385 22.4219 12.4766 22.4009 12.5139 22.3779Z" fill="#474E5A"/>
</svg>
